<?xml version="1.0" encoding="utf-8"?>
<!-- Generator: Adobe Illustrator 18.1.1, SVG Export Plug-In . SVG Version: 6.00 Build 0)  -->
<svg version="1.1" id="Layer_1" xmlns="http://www.w3.org/2000/svg" xmlns:xlink="http://www.w3.org/1999/xlink" x="0px" y="0px"
	 viewBox="-287 380.3330078 35.0830002 32.6669998" enable-background="new -287 380.3330078 35.0830002 32.6669998"
	 xml:space="preserve">
<g id="Layer_1_1_">
	<g>
		<g>
			<g>
				<g>
					<defs>
						<polygon id="SVGID_1_" points="-280.3330078,381.7910156 -262.375,381.7910156 -262.375,396.5939941 
							-268.9169922,396.5939941 -268.9169922,403.9160156 -284.3330078,403.9160156 -284.3330078,391.375 -284.3330078,382 						
							"/>
					</defs>
					<clipPath id="SVGID_2_">
						<use xlink:href="#SVGID_1_"  overflow="visible"/>
					</clipPath>
					<g clip-path="url(#SVGID_2_)">
						<g enable-background="new    ">
							<path fill="#FFFFFF" d="M-263.9511719,397.4501953c1.1191406,0.7558594,1.6796875,1.8105469,1.6796875,3.1640625v2.34375h-20
								v-2.34375c0-0.3378906,0.0390625-0.6777344,0.1171875-1.015625c0.3642578-1.25,1.1191406-2.0957031,2.265625-2.5395508
								l4.765625-1.2890625c-0.9902344-0.859375-1.5498047-1.8359375-1.6796875-2.9296875
								c-0.5996094-0.2080078-0.9121094-0.7285156-0.9375-1.5625c0-0.1298828,0.0253906-0.3515625,0.078125-0.6640625
								l-0.390625-3.0859375v-0.078125c-0.0263672-0.0517578-0.0390625-0.1103516-0.0390625-0.1757813
								c0-0.0644531,0.0058594-0.1494141,0.0195313-0.2539063c0.0126953-0.1035156,0.0253906-0.2148438,0.0390625-0.3320313
								c0.0126953-0.1171875,0.0390625-0.2402344,0.078125-0.3710938c0.0390625-0.1298828,0.0839844-0.2666016,0.1367188-0.4101563
								c0.0517578-0.1425781,0.1103516-0.2861328,0.1757813-0.4296875c0.0644531-0.1425781,0.1494141-0.2929688,0.2539063-0.4492188
								c0.1035156-0.15625,0.2207031-0.2988281,0.3515625-0.4296875c0.9892578-1.0673828,2.578125-1.6142578,4.765625-1.640625
								c2.1611328,0,3.75,0.546875,4.765625,1.640625c0.390625,0.4169922,0.6767578,0.9248047,0.859375,1.5234375
								c0.2080078,0.703125,0.2597656,1.171875,0.15625,1.40625l-0.390625,3.0859375
								c0.0517578,0.2871094,0.078125,0.5078125,0.078125,0.6640625c-0.0263672,0.8076172-0.3388672,1.328125-0.9375,1.5625
								c-0.1044922,1.0419922-0.6513672,2.0185547-1.640625,2.9296875l4.6875,1.2890625
								C-264.4335938,397.1635742-264.1855469,397.293457-263.9511719,397.4501953z M-281.6074219,402.2939453h6.640625
								l2.1484375-3.2421875c-0.4951172-0.2089844-0.7558594-0.6894531-0.78125-1.4453125v-0.8598633
								c-0.078125-0.0517578-0.2216797-0.1298828-0.4296875-0.234375c-0.1826172-0.1035156-0.3261719-0.1816406-0.4296875-0.234375
								l-5.1953125,1.4067383c-0.1826172,0.078125-0.3652344,0.1699219-0.546875,0.2734375
								c-0.9375,0.625-1.40625,1.5097656-1.40625,2.65625V402.2939453z M-277.2714844,386.434082l-0.1171875,1.015625
								l0.3125,2.421875c0.0517578-0.0517578,0.15625-0.1035156,0.3125-0.15625l0.390625-1.875
								c0.0517578-0.15625,0.15625-0.2470703,0.3125-0.2734375c0.4160156,0,0.8066406-0.0253906,1.171875-0.078125
								c1.0673828-0.1035156,1.7705078-0.4814453,2.109375-1.1328125c0.078125-0.1298828,0.1689453-0.2470703,0.2734375-0.3515625
								c0.15625-0.1035156,0.3125-0.1035156,0.46875,0c0.0517578,0.078125,0.1425781,0.1953125,0.2734375,0.3515625
								c0.4160156,0.7558594,1.5097656,1.1591797,3.28125,1.2109375c0.1298828,0.0263672,0.234375,0.1171875,0.3125,0.2734375
								l0.390625,1.875c0.1035156,0.0263672,0.2080078,0.078125,0.3125,0.15625l0.3125-2.421875
								c0.078125-0.8847656-0.2089844-1.6796875-0.859375-2.3828125c-0.859375-0.9375-2.2792969-1.4189453-4.2578125-1.4453125
								c-1.953125,0-3.3730469,0.4824219-4.2578125,1.4453125
								C-276.8681641,385.4575195-277.1152344,385.9135742-277.2714844,386.434082z M-274.2636719,395.6137695l0.0390625,0.0390625
								c0.7548828,0.46875,1.40625,0.7167969,1.953125,0.7421875c0.5722656,0,1.2236328-0.2470703,1.953125-0.7421875
								l0.0390625-0.0390625c1.2236328-0.8847656,1.8486328-1.9140625,1.875-3.0859375
								c0.0253906-0.1816406,0.1425781-0.2861328,0.3515625-0.3125c0.3642578-0.0517578,0.5595703-0.3642578,0.5859375-0.9375
								c-0.0263672-0.5986328-0.2216797-0.9111328-0.5859375-0.9375c-0.15625-0.0253906-0.2734375-0.1171875-0.3515625-0.2734375
								l-0.3515625-1.8359375c-0.0263672,0-0.0527344,0-0.078125,0c-1.71875-0.0517578-2.8652344-0.5205078-3.4375-1.40625
								c-0.5732422,0.8857422-1.7451172,1.3544922-3.515625,1.40625l-0.3515625,1.8359375
								c-0.0527344,0.15625-0.1699219,0.2480469-0.3515625,0.2734375c-0.3652344,0.0527344-0.5605469,0.3652344-0.5859375,0.9375
								c0.0253906,0.5996094,0.2207031,0.9121094,0.5859375,0.9375c0.1816406,0.0263672,0.2988281,0.1308594,0.3515625,0.3125
								C-276.1132813,393.7260742-275.4882813,394.7543945-274.2636719,395.6137695z M-274.8105469,391.199707
								c-0.1826172-0.0253906-0.2871094-0.1425781-0.3125-0.3515625c0-0.1816406,0.0644531-0.3642578,0.1953125-0.546875
								c0.15625-0.1035156,0.4423828-0.1689453,0.859375-0.1953125h0.1171875h0.1171875
								c0.390625,0,0.6767578,0.0654297,0.859375,0.1953125c0.1035156,0.15625,0.1689453,0.3388672,0.1953125,0.546875
								c-0.0263672,0.1826172-0.1435547,0.2998047-0.3515625,0.3515625c-0.1826172-0.0253906-0.2871094-0.1425781-0.3125-0.3515625
								v-0.078125h-0.390625h-0.1171875h-0.1171875c-0.1826172,0-0.3125,0.0136719-0.390625,0.0390625v0.0390625
								C-274.4853516,391.0307617-274.6025391,391.1479492-274.8105469,391.199707z M-270.3574219,402.2939453l-1.9140625-2.8515625
								l-1.9140625,2.8515625H-270.3574219z M-271.6074219,397.6064453v-0.6254883
								c-0.2871094,0.0527344-0.5078125,0.078125-0.6640625,0.078125c-0.1308594,0-0.3515625-0.0253906-0.6640625-0.078125
								v0.6254883c0.0253906,0.546875,0.2470703,0.8457031,0.6640625,0.8984375
								C-271.8554688,398.4794922-271.6337891,398.1787109-271.6074219,397.6064453z M-271.7636719,390.8481445
								c0-0.1816406,0.0644531-0.3642578,0.1953125-0.546875c0.15625-0.1035156,0.4423828-0.1689453,0.859375-0.1953125h0.1171875
								h0.1171875c0.390625,0,0.6767578,0.0654297,0.859375,0.1953125c0.1035156,0.15625,0.1689453,0.3388672,0.1953125,0.546875
								c-0.0263672,0.1826172-0.1308594,0.2998047-0.3125,0.3515625c-0.1826172-0.0253906-0.2998047-0.1425781-0.3515625-0.3515625
								v-0.078125h-0.390625h-0.1171875h-0.1171875c-0.1826172,0-0.3125,0.0136719-0.390625,0.0390625v0.0390625
								c-0.0263672,0.1826172-0.1308594,0.2998047-0.3125,0.3515625
								C-271.5947266,391.1743164-271.7119141,391.0571289-271.7636719,390.8481445z M-262.9355469,400.6142578
								c0-0.234375-0.0263672-0.4824219-0.078125-0.7421875c-0.2871094-1.09375-0.9121094-1.8222656-1.875-2.1875
								l-5.1953125-1.4458008c-0.0527344,0.0527344-0.3388672,0.2216797-0.859375,0.5078125v0.8598633
								c-0.0263672,0.7285156-0.2871094,1.2109375-0.78125,1.4453125l2.1484375,3.2421875h6.640625V400.6142578z
								 M-267.6230469,400.3017578h2.6953125v-0.6640625h-2.6953125V400.3017578z"/>
						</g>
					</g>
				</g>
			</g>
		</g>
	</g>
</g>
<g id="Layer_2">
</g>
<g id="suitcase">
	<g enable-background="new    ">
		<path fill="#FFFFFF" d="M-266.9121094,406.3857422v-7.1953125c0.015625-0.09375,0.0859375-0.15625,0.2109375-0.1875h3.3984375
			c0.03125-0.34375,0.1328125-0.6640625,0.3046875-0.9609375c0.421875-0.703125,1.0546875-1.0551758,1.8984375-1.0551758
			c0.359375,0,0.703125,0.0859375,1.03125,0.2578125c0.703125,0.3598633,1.0859375,0.9458008,1.1484375,1.7583008h3
			c0.109375,0.015625,0.1796875,0.078125,0.2109375,0.1875v7.1953125c-0.015625,0.109375-0.0859375,0.1796875-0.2109375,0.2109375
			h-10.78125C-266.8105469,406.5810547-266.8808594,406.5107422-266.9121094,406.3857422z M-266.5136719,399.4013672v2.390625
			h0.0234375h4.3828125v-0.609375c0.03125-0.109375,0.09375-0.171875,0.1875-0.1875h1.6171875
			c0.109375,0.03125,0.171875,0.09375,0.1875,0.1875v0.609375h4.0078125v-2.390625H-266.5136719z M-256.1074219,406.1982422
			v-4.0078125h-4.0078125v1.0078125c-0.03125,0.109375-0.09375,0.171875-0.1875,0.1875h-1.6171875
			c-0.109375-0.03125-0.171875-0.09375-0.1875-0.1875v-1.0078125h-4.3828125h-0.0234375v4.0078125H-256.1074219z
			 M-261.8496094,397.5498047c-0.625,0.28125-0.9765625,0.765625-1.0546875,1.453125h3.5859375
			c-0.03125-0.234375-0.1015625-0.46875-0.2109375-0.703125c-0.34375-0.609375-0.8671875-0.9140625-1.5703125-0.9140625
			C-261.3652344,397.3857422-261.6152344,397.4404297-261.8496094,397.5498047z M-260.5136719,401.3935547h-1.1953125v1.59375
			h1.1953125V401.3935547z"/>
	</g>
</g>
</svg>
